/* XPM */
static const char *YWRhcmRvdXI_[] = {
/* columns rows colors chars-per-pixel */
"64 64 256 2 ",
"   c #0C0D0D",
".  c #0C1013",
"X  c #8CCAE8",
"o  c #326FAD",
"O  c #3E8FCA",
"+  c #070503",
"@  c #0C121D",
"#  c #0D0F0F",
"$  c #0A0C0B",
"%  c #080909",
"&  c #0B0F17",
"*  c #3880BF",
"=  c #6AA9D6",
"-  c #2F6BA9",
";  c #3D8AC6",
":  c #A87C6F",
">  c #4C95C8",
",  c #4487BD",
"<  c #3B8BCD",
"1  c #316BA4",
"2  c #0C1424",
"3  c #3986C9",
"4  c #8ABCDF",
"5  c #63A5D4",
"6  c #4685C2",
"7  c #55A8D5",
"8  c #367DB9",
"9  c #3F7AB8",
"0  c #4E97CE",
"q  c #4596D1",
"w  c #8BC0E2",
"e  c #86BEE2",
"r  c #7DBCE1",
"t  c #3879B6",
"y  c #559DCE",
"u  c #3B85C4",
"i  c #6FAEDA",
"p  c #51ACE2",
"a  c #5DA2D2",
"s  c #886A59",
"d  c #77BAE3",
"f  c #3476B4",
"g  c #715344",
"h  c #3781C4",
"j  c #458CC8",
"k  c #6DBDE6",
"l  c #5195C8",
"z  c #4A8FC3",
"x  c #468AC1",
"c  c #3C7DB2",
"v  c #4791CB",
"b  c #5C98C8",
"n  c #5793CA",
"m  c #8BC4E6",
"M  c #0E192B",
"N  c #84C4E7",
"B  c #947461",
"V  c #3573B0",
"C  c #4D8BC0",
"Z  c #63C3E7",
"A  c #4E92C6",
"S  c #74493B",
"D  c #8D7060",
"F  c #997A6B",
"G  c #71B1DE",
"H  c #AD8174",
"J  c #5EB7E0",
"K  c #52A5DA",
"L  c #87554D",
"P  c #76B2DC",
"I  c #3E85C0",
"U  c #443632",
"Y  c #58ADD9",
"T  c #161515",
"R  c #67AFDD",
"E  c #4180BD",
"W  c #3B7EBB",
"Q  c #876353",
"!  c #5798CC",
"~  c #49A1D9",
"^  c #4581B8",
"/  c #559FD3",
"(  c #4C9ED4",
")  c #6B4B41",
"_  c #9D7972",
"`  c #272220",
"'  c #5CA4D7",
"]  c #44A0D3",
"[  c #53A4D1",
"{  c #64A0CE",
"}  c #3984BF",
"|  c #946B5D",
" . c #3E77B0",
".. c #7A768C",
"X. c #B3C7CF",
"o. c #312825",
"O. c #8D6B5C",
"+. c #84CAEB",
"@. c #85B9DE",
"#. c #64453C",
"$. c #73C8EC",
"%. c #70AAD7",
"&. c #4685BA",
"*. c #60A8DB",
"=. c #4096CC",
"-. c #64B1E5",
";. c #4E8CC7",
":. c #3273AA",
">. c #816657",
",. c #75594F",
"<. c #ADC0C8",
"1. c #957268",
"2. c #583D35",
"3. c #805F4F",
"4. c #7D5749",
"5. c #8C726B",
"6. c #68C7EC",
"7. c #6DB5E0",
"8. c #61BDE4",
"9. c #68A4D0",
"0. c #75B6E2",
"q. c #4E9FCE",
"w. c #31739C",
"e. c #2F669F",
"r. c #1C1B1C",
"t. c #10203C",
"y. c #3C302C",
"u. c #856A63",
"i. c #6B544E",
"p. c #4C3732",
"a. c #A4776A",
"s. c #61AFE0",
"d. c #59433F",
"f. c #A8827A",
"g. c #5CB2DC",
"h. c #3D84B8",
"j. c #70B3E6",
"k. c #5893C4",
"l. c #367CC1",
"z. c #54B3E8",
"x. c #614D45",
"c. c #7BB0D8",
"v. c #72534A",
"b. c #67BAE2",
"n. c #7DC9EC",
"m. c #80C0E4",
"M. c #7AB6DE",
"N. c #70C1E9",
"B. c #9F7F7A",
"V. c #101111",
"C. c #427DB4",
"Z. c #0C1B34",
"A. c #8ED0EB",
"S. c #80B4DA",
"D. c #77D0EF",
"F. c #74AED6",
"G. c #323133",
"H. c #3F8EBD",
"J. c #2E6A94",
"K. c #265176",
"L. c #3B72AA",
"P. c #1F3D60",
"I. c #2B5D8B",
"U. c #0F2851",
"Y. c #795E57",
"T. c #7D4C42",
"R. c #9D6D5C",
"E. c #926253",
"W. c #B38E86",
"Q. c #71A7D0",
"!. c #80B7DE",
"~. c #4095D7",
"^. c #619ECA",
"/. c #554747",
"(. c #5390C0",
"). c #060A11",
"_. c #4BA8E0",
"`. c #192E44",
"'. c #265280",
"]. c #826C6C",
"[. c #9E7363",
"{. c #AF877E",
"}. c #4E403C",
"|. c #67595E",
" X c #499DC9",
".X c #837A90",
"XX c #7E87AE",
"oX c #4F85B9",
"OX c #9E8072",
"+X c #79C3E8",
"@X c #53AEF8",
"#X c #837682",
"$X c #242B3C",
"%X c #947F83",
"&X c #73799C",
"*X c #4495C3",
"=X c #3679AE",
"-X c #3A88AF",
";X c #1A3D6A",
":X c #8B7877",
">X c #21242A",
",X c #686274",
"<X c #58596F",
"1X c #7F5951",
"2X c #7E605D",
"3X c #295A7C",
"4X c #A1ABAC",
"5X c #1F4570",
"6X c #404451",
"7X c #57555F",
"8X c #70708B",
"9X c #4F6790",
"0X c #6782B6",
"qX c #759CDB",
"wX c #8F859D",
"eX c #78616D",
"rX c #72A3CB",
"tX c #2C5B94",
"yX c #6396BC",
"uX c #377DA8",
"iX c #73B8E9",
"pX c #255F9D",
"aX c #A39993",
"sX c #5E6382",
"dX c #253854",
"fX c #B8978E",
"gX c #7B6B77",
"hX c #3A3940",
"jX c #6777A2",
"kX c #7CB0F3",
"lX c #9A8DA3",
"zX c #4EA5CF",
"xX c #3579A2",
"cX c #2D698C",
"vX c #AAB8BD",
"bX c #A88C84",
"nX c #A0868F",
"mX c #7D5148",
"MX c #62C2FD",
"NX c #7490C9",
"BX c #8E99C9",
"VX c #945255",
"CX c #66B6E6",
"ZX c #5997DF",
"AX c #6BA0E6",
"SX c #434F6E",
"DX c #67B0F5",
"FX c #9D6A67",
"GX c #783E32",
"HX c #55BAF2",
"JX c #87959C",
"KX c #5774A7",
"LX c #8DA3DE",
"PX c #93A0A8",
"IX c #144A8F",
"UX c #59A2ED",
/* pixels */
"tX1 :.=X:.- - - o 8 O =.=.; 8 * } ; O O } o - t u O O O ; } W * W W t V o 1 t v ( ( I  . .c c &.[ J Z J [ , L.C.> 7 Y [ A &.C.L.",
"tXe.:.V 1 1 - - o 8 =.] ] O * * * ; =.O } o o 8 ; O O ; u } 8 t W W t V o - t q K ( j  .c C.C.^ 0 Y g.7 y ,  .C.> 7 Y [ A ^  .L.",
"tXe.:.V - 1 - o f } ] ] ] O u h * } ; ; 8 o - 8 } ; ; u * * * h u W t V o o E ( K K v 9 ^ &.^ x q.Y Y 7 > , C.C.z [ 7 [ A ^  .L.",
"tX1 o V - 1 o f } =.] ] =.O u h h * * * t - - f } u h * * u O q q O W V - o W v ( ( j I , , , z 7 J J Y > x &.^ z [ [ [ > , ^ C.",
"tX- f f 1 1 V 8 O ] ~ ] O 3 u u h h u } t - - t u O ; u u =.q ~ ~ ( O t o o t ; q v I E , , x > g.Z Z J q.z , x 0 7 7 q.> z x x ",
"pXo 8 8 o - f * O =.] =.< 3 u h h 3 O ; 8 o - 8 ; O =.; ; q q _._.~ q W V o V W E E t 9 E E , > Y Z Z 8.[ x , A 7 g.g.[ > A > > ",
"e.V 8 t o o f * ; O O O < < 3 h h < O O } o o 3 ~.~.~.< ~.~ ~ _.~ ( q I V o t I j 6 9 t 9 9 9 x 7 8.Z 8.7 z x > Y 8.8.Y q.> 0 y ",
"e.V 8 t - - f 8 * u 3 < < < 3 h h 3 =.=.O f '.P.`.`.`.`.P.K.1 q z._.q W V V I q ( ( j 9  . .9 x 7 8.Z J 7 A C A 7 8.Z J [ 0 0 0 ",
"e.o t f - - f 8 * h 3 3 < < < 3 h 3 q ~.w.t.$ + + % + % + % ).M P.J.j ; f t v ( K K 0 6 9 9 E > Y 8.Z J 7 A C A Y 8.Z J 7 0 > A ",
"e.o f f o - V t * h 3 3 3 < < < 3 ~.8 P.# +     # # #     . & & ).).M tXh u v K z.p 0 j 9 9 E y J Z Z 8.' l z 0 g.Z Z 8.7 l z x ",
"1 V 8 8 o - f 8 u 3 < O O < < < ~.J.@ +   # #   # $ # # $   # . @ M & @ dXL.~ K z.p 0 j 9 9 6 / J 6.6.8.' l A y g.Z Z J 7 l C &.",
"- t I I f o f * 3 O ] ~ ~ q < ~.'.% $ #   # V.  # $ # V.  # # V.@ 2 2 2 & 2 J.p K K 0 j E 9 6 y J 6.6.8.*.! l y g.Z Z J [ l A C ",
"o W I I t V t * ; q _.p _.] ~.I.+   V.#     $   V.T T r.T V.V.# . @ 2 M M @ & uXp ( v 6 E E 6 y J 6.6.Z s./ ! y *.b.8.g./ l l A ",
"L.W x ; t V W u ; q p z.p _.J.#   V.# V.$ T ` p.d.d.#.) #.2.y.` V.# & M t.M % t.j 0 6 E 6 6 6 y s.6.6.Z s.a ! ! ' J b.s.a ! y y ",
"V E v j W f * u O q _.p p q M % # # # # r.U ) 4.4.T.S S S S S S #.U >X& 2 t.Z.M 5Xj 6 6 6 ;.;.' CX6.6.k s.a ! ! a s.b.b.*.y ' ' ",
" .E j x W t * ; O q ~ ~ _.K.+ # V.# T o.2.S S S S S S S T.T.S S g i.<X6Xr.M t.t.t. .6 6 ;.0 y s.Z 6.6.k R a a 5 *.R b.b.R a a ' ",
"9 , v j E t E ; O q ~ ~ O M + # # T y.#.S S T.L L L L E.E.E.L L mX,.|.,X9X$X@ U.Z.'.;.C 0 / ' s.6.6.$.k R 5 5 R 7.k k k R 5 a a ",
"9 6 0 > I 9 W I O q ~ _.=X$ $   # r.p.#.S 4.E.R.a.a.R.R.R.R.R.R.| u.eX,XjX9X>Xt.U.;X;.;.! ' *.-.N.$.$.k R = R k N.N.N.k R 5 { a ",
"^ z 0 v 6 9 9 W u q ~ z.cX+   # T y.#.#.4.E.| f.W.{.H : : : : a.a._ #X..jXn SXZ.U.'.;.;.! ' *.-.k N.N.k R = G N.$.$.$.N.7.= 5 5 ",
"0 / ' / x 9 9 E I v K z.w.+ # # T U ) g Q | [.: f.H H H H H H : : _ :X.X&XZXoX`.U.1 ;.C n a *.R k N.$.k G i G N.$.D.D.$.d i = = ",
"*.s.-.Y > 9 E E u v ~ p w.$   V.T p.g g 3.O.B [.a.a.: H : H H a.[.1.5.#XXXAXZX'.U.e.n C n ! 5 7.N.$.$.N.G i G d +X$.D.D.N.G i G ",
"-.-.-.s./ 6 E 6 j v ( p J.+ # T r.U 4.g 4.E.| : : : H H : : a.[.R.1.5.#XNXDXDX- ;XtXn ;.n b 5 7.$.D.D.$.0.i P d +Xn.D.n.+X0.G 0.",
"-.-.CX-.' ;.6 6 j q ~ p H.& $ r.` }.v.) g v.u.5.B.W.W.W.{.{.{.f.B._ u...qXDXMX< IX1 n k.b ^.9.7.$.D.D.n.d P d +Xn.n.n.n.+XM.P P ",
"*.5 -.-.' ;.6 6 v ( p p _.`.$ ` y.#.) 2.y.G.G.o.G.x.B.fXfXfX_ |.G.G.hXhXKXMXMX@XpX .n k.b { 9.G +XD.D.n.r M.r n.n.+.n.n.r M.c.P ",
"= { -.-.*.;.6 6 v K z.z.HX3X  >Xp.) 2.o./.|.|.i.x./.].W.fXW.u./.}./.}.}.SXZXMX@XpXoXn b ^.9.9.%.d +Xn.+Xr S.r N n.+.+.N r c.c.c.",
"R = CXCX*.n C ;.0 K z.z.HXcXT o.}.) U i.B.bX{.: a.: B f.fX: O.[.: H {.OXeX9 MX@Xo (.n b 9.= %.%.F.d m.r !.S.!.m.+.+.+.+.e S.S.c.",
"j.j.N.k R n ;.;.0 K p p z.uX` G.}.x.x.s 3.) d.d.) O.D | : B 4.4.) g Y.].u.jX@X@Xl.k.b { = G G F.P M.r r !.S.@.e N +.+.+.e @.@.!.",
"j.iXN.k R n A ;.0 / K p HX] G.G.}.i.>.g o.` T G./.#.3.3.| ].g p.o.r.` dX7X..DX@X3 b b { i 0.0.0.M.r m.m.@.@.@.e w m X X m e e @.",
"j.0.k 7.5 n n A 0 / p A <X9X6XU /.1XQ ) g >.,.4.4.3.4.1XE..X1Xg #.#.x./.<X&XkX@Xq (.b 9.i 0.d d r m.N N e 4 4 w m m X X m w e e ",
"%.G 7.i { n n A y K z.<XGXT.3.p.d.4.Q s [._ OXF _ | L L E.BXXXQ O.| 1.1.XXNXqX@X0X<XKX9.i 0.d d r N +.+.m 4 w m m X X m m w w e ",
"Q.Q.%.= { b ! n / p Y 1XL u.O.d.d.v.D _ : : f.{.f.| 1XL R.XXkXwXa.B._ [.%XXXqX@XXXXXY.{ i d d M.r N +.+.m w w m X X X X m w 4 4 ",
"rXQ.%.= { b ! n / p yXT.L _ u.d.d.4.1._ f.H H : FXQ v.L FX.XqXwXR.f.: : nXBXkX@X&XBX].XXG 0.d M.r m.N N m w w m X A.A.A.m w 4 4 ",
"rXQ.%.= { b ! n ! p yXGXL _ 2Xp.d.1XO.1.a.H H a.| S mXFXH lXAXgXR.a.H f.nXBXkXUX..lXeX..iXd d M.M.r N N w 4 w m X A.A.A.X w 4 4 ",
"rXQ.%.= { b n l ! K y S T.Q ) U d.,.Q 1._ W.{.a.L mX) _ fXlXNXXXE.: {.{.nXLXkXZX|.:XeX&XiX0.d M.c.!.e e 4 4 w m X A.A.A.X w 4 4 ",
"%.i i = { b n A l y p ,XT.mX#.p.2.v.1X1.W.W.H R.L S 2.v.5.,Xd.v.L H W.W.nXLXkXZX|.2X&XyXi P 0.P M.!.e e 4 4 w m X X A.A.X w 4 4 ",
"P 0.G = ^.k.k.C l 7 z.b T.mX) U p.v.4.| W.: [.E.L ) i.2X2X|.,XeXE.[.: ].lXBXqX^ p.gX&X^.= G P P M.m.m.N e 4 w m X X X X m 4 4 4 ",
"0.iXj.= ^.k.k.C l 7 g.z.sXGXY.U U v.4.| a.,.d.}.p.y.y.i._ p.G.7X|.Y.Q O.lXXXNXL.&X2XjX^.9.i G P M.m.N N e 4 w m X X X X w 4 4 4 ",
"0.iXj.= ^.k.(.C l / Y p ( 7XT.2.o.v.4.O.Q ` o.U d.i.#.Q a.1XU /./.hX6X3.lX..0X9XgX8Xk.k.{ = i F.P m.N N e @.e w m X X X w @.@.@.",
"G iXj.= b (.C C z q.K K ( ; 9X<XG.x.3.Q Q y.#.2.2.T.VXL L VXT.#.p.p.G./.wX.XjX6XeXoXC k.9.= i %.F.r m.m.e @.@.e N N X N e @.S.S.",
"%.j.j.9.b (.C &.z 0 q.q j O < h dXp.,.Y.O.s | | 1XL FXVXVXVXL sX|.s g eX.X.X9XI., ^ oX(.{ = = %.Q.P M.r !.S.S.@.e N N N e S.S.c.",
"%.j.j.5 k.oX&.&.x v v j ; O ; 3 ;Xo.x.,.>.1.1.F OXbXf.: : f.B.wXwX%X5..X....'.1 &.^ ^ (.^.5 = = Q.F.P P c.c.c.!.@.m.m.m.r S.c.Q.",
"G j.j.*.k.oX&.^ x v v ; u O ; < e.r.U i.3.3.1._ _ B.OXs 2X1.5.%X%XwX.X8X#XSX5XC. .C.C.C b 5 5 9.9.%.G P F.F.c.M.!.r r r M.c.F.rX",
"i j.-.' ! C &.^ , j j u * ; ; < 1 ` r.}.i.,.s F B.bXf._ 1._ B.B.%XwX8X,X<XdXe.c  . . .oX! a 5 5 = i 7.G F.Q.F.P M.r M.M.P F.Q.rX",
"5 R R a l C , ^ E I u h l.* * h 1 p.r.r.y.) 3.F f.bXbXf.1._ f.B.%XXX8X7X`.;X3  . . . .&.l a ' 5 = R 7.7.i Q.Q.F.P d d M.P Q.rXyX",
"b a a a A &.&.C.W W * l.l.l.l.l.e.#.y.# ` U x.s B.B.F u.i.2X:X%X.XjX<X$X2 9 ~.:.L.L.L.^ l / a a 5 R k 7.= 9.9.%.G d k d F.Q.^.yX",
"oX(.l l C ^ ^ c h.I } * h u * l.e.2.#.` T ` ` }.i.i.i.}.y./.|.gXsXSX6Xt.P.AXq :.L.L.L.C.A y y y a R b.R 5 { { = i k N.k i 9.^.yX",
"oXC A z , C.C.c I I } * * 3 h 3 I.2.) x.y.V.# r.` o.o.o.y.G.hXhX$X$X>X`.0XAXj 1 :.1 1 c x > A l y ' *.*.a ^.{ 5 R b.k k 7.9.^.b ",
"C.^ z z , h.c c I O ; } 8 } < - r.2.) v.x.o.$ #   # V.V.T T 2 @ >X$X`.9X0XqX1 I.- 1 1  ., z z x l / ' a y b a *.R b.b.b.R 5 ^.k.",
"C.&., , h.c c c ; =.=.} f h * M   2.g v.v.d.` # % % $ $ $ # T 2 $XdXsX&X&XqXI.U.f e.e.=Xx > z x z 0 y y l ! a ' s.b.b.b.g.a b (.",
"x v > x c =X=X=XI O O O l.1 `.+ T 2.g ,.,.,.x.U ` T % % % $ . r.6XsX8X..8XNXI.2 '.e.1 :.h.x x , , > q.y y l y [ Y J b.J Y y (.C ",
"j 0 (  Xh.:.:.:.8 O ; J.`.. + $ V.2.g 3.>.Y.i.x.x.x.U o.` o.U 7X,X8X......0XK.& M Z.5X:.h.h.h.c ,  X[ [ q.z > / Y g.J g.7 l z &.",
"v ( K q.h.1 e.1 :.K.M + + $   $ # 2.g >.D D Y.,.i.Y.u.D O.s u.gX......#X..0XP.& Z.@ ).Z.e.H.h.c H.q.[ zX Xz z > 7 Y g.Y [ > z &.",
"x j ( q.H.1 1 '.Z.+ +     $ $ $   p.g s 1.1.s ,.,.Y.5.F F 1.].].#X..#X#X.X0X$X& Z.M @ + @ I.I H.H. X7 q.> H., > q.7 Y 7 zX*X, c ",
"t =X*X X*X:.dX$ + $     $ $   $ % U g >.1.F 1.>.,.v.,.F _ u.2X].gX#X:X:X.XsXV.@ Z.2 & . + & ;X:.=.q.zX XH.h., *X Xq.zXzX XH.c xX",
":.w.*X] J.Z.+ $ $               % o.g >.D F OX5.>.Y.g ,.O.Y.u.].].:X:X:X../.$ 2 M 2 & . $ % @ t.5Xh.] *Xh.c c h.H.*X X X*X-XxXw.",
"1 w.J.`.% + V.$ %   #     $     % ` g >.s F OXOXD >.>.v.v.>.D 5.5.5.5.gXY.o.).2 2 2 & .   % . M 2 t.'.uXw.J.w.xXuX-X-X-XuXw.J.I.",
"I.`.% +   V.  $ $ # #       $ $ $ r.g >.s D F OXF O.s s s O.D 5.5.5.5.>.g U & @ 2 @ & . # %   @ @ @ 2 U.5X3X3XI.J.w.xXw.cX3X3XK.",
"& + $ # V.#   $ $ # # #     $   + hXu.s s D D F F B D O.O.B B D D D s 3.u.|.).2 2 @ & . # $ $ @ @   . @ Z.U.;X3XJ.w.xXw.cXK.K.K.",
"% V.  # V.#   $   # # #         + >X4XB B D D B F B D D B B s Q O.D Q >.vX6X).2 @ & . . # $ % & @   # # & 2 U.P.I.-X-XuXw.3XK.K.",
"# #   V.V.    % # V.V.V.# #       $ JXaXQ B F B F B O.s Q Q 3.s B 3.u.vXvX>X).@ & . . . # $ % # &   #   . @ 2 Z.t.'.H.H.w.I.'.K.",
"V.# # V.#     % # # V.V.# #       + ,XX.%Xs B OXOXF B O.Q Q | B s %X<.X.4X>X).@ & # . & . $ % $ .   # # @ @ . Z.2 Z.U.pXJ.K.5X5X",
"V.V.# # #   $ $ # # # # #       # + 7X<.<.4X:Xs [.F [.| E.| F bX4XX.<.X.4Xr.).& # # . & .   $ % # # # # 2 .   2 M 2 2 Z.;X;XP.P.",
"# V.# #     $   # # #   V.        + 7XX.<.<.<.4XaXaXaXbXaX4XvX<.<.<.X.X.JX. & #   # # & #   $ %   #   . @     @ M & Z.@ 2 U.P.P.",
"# # # #     %   #       # #       + G.vXX.<.<.<.X.X.X.X.X.X.<.<.<.X.X.X.PXT ).      . . #     % $     & & $   @ @ & M M & M U.P."
};
