/* XPM */
static char *d6d2f77445ca4b8ea0585b017efe4531[] = {
/* columns rows colors chars-per-pixel */
"64 64 222 2 ",
"   c #775E66",
".  c #6C636A",
"X  c #73656E",
"o  c #7D696D",
"O  c #786568",
"+  c #7B6B74",
"@  c #786671",
"#  c #7C7174",
"$  c #7F7478",
"%  c #81666C",
"&  c #836B6E",
"*  c #896C6F",
"=  c #846467",
"-  c #816671",
";  c #846D74",
":  c #8B6D74",
">  c #846E79",
",  c #8C6E79",
"<  c #886770",
"1  c #916D74",
"2  c #946F79",
"3  c #847275",
"4  c #8B7375",
"5  c #85737A",
"6  c #8C747B",
"7  c #86797C",
"8  c #8D7A7D",
"9  c #937376",
"0  c #93757B",
"q  c #9B747C",
"w  c #937A7D",
"e  c #9B7A7D",
"r  c #987776",
"t  c #A3757C",
"y  c #A27C7E",
"u  c #A9767C",
"i  c #8F807D",
"p  c #9E807F",
"a  c #A1817F",
"s  c #8D7681",
"d  c #8D7B82",
"f  c #847780",
"g  c #937681",
"h  c #9A7681",
"j  c #947C82",
"k  c #9B7C83",
"l  c #9C7D89",
"z  c #977D8A",
"x  c #A17781",
"c  c #A37D83",
"v  c #AA7D83",
"b  c #A27E89",
"n  c #A97F88",
"m  c #B57981",
"M  c #8D8184",
"N  c #8C8489",
"B  c #958184",
"V  c #9B8285",
"C  c #9D8986",
"Z  c #95848A",
"A  c #9C848A",
"S  c #968A8D",
"D  c #9C8A8D",
"F  c #928887",
"G  c #8F8C90",
"H  c #9C8D92",
"J  c #988D96",
"K  c #9E9193",
"L  c #9D959B",
"P  c #989696",
"I  c #A38285",
"U  c #AA8286",
"Y  c #A38886",
"T  c #A1828D",
"R  c #A3848A",
"E  c #AA858B",
"W  c #A48B8D",
"Q  c #AA8A8D",
"!  c #AA8887",
"~  c #B2878C",
"^  c #A0928F",
"/  c #A48D92",
"(  c #AB8B91",
")  c #AA8993",
"_  c #B28D92",
"`  c #A49294",
"'  c #AB9395",
"]  c #A3949A",
"[  c #AB9499",
"{  c #A49B9C",
"}  c #AB9A9C",
"|  c #A79996",
" . c #B29294",
".. c #B3959A",
"X. c #BD979D",
"o. c #B29B9C",
"O. c #BC999D",
"+. c #AEA19F",
"@. c #9D9BA1",
"#. c #9A9AA6",
"$. c #A49CA3",
"%. c #AA9EA4",
"&. c #AB9FAA",
"*. c #A09EA9",
"=. c #B49EA2",
"-. c #BA9EA3",
";. c #9EA5A6",
":. c #A3A2A3",
">. c #ACA3A4",
",. c #ABA9A6",
"<. c #A6A4AB",
"1. c #ABA4AA",
"2. c #A4ABA9",
"3. c #ACAAAC",
"4. c #B3A3A5",
"5. c #B9A4A6",
"6. c #B3A6AB",
"7. c #BBA5AA",
"8. c #B4ABAC",
"9. c #BBACAC",
"0. c #B3AAA6",
"q. c #B3B2AE",
"w. c #B9B1AE",
"e. c #ACACB2",
"r. c #AFA4B4",
"t. c #B4AEB4",
"y. c #BBAEB3",
"u. c #B6AAB4",
"i. c #ADB2B3",
"p. c #ABB9B7",
"a. c #B3B2B3",
"s. c #BCB3B4",
"d. c #BBB9B5",
"f. c #B4B4BA",
"g. c #BCB5BB",
"h. c #B5BBBA",
"j. c #BBBBBC",
"k. c #B2BDB7",
"l. c #A9B2AF",
"z. c #C2A7A9",
"x. c #C3ACB1",
"c. c #C8AFB5",
"v. c #C2B2B3",
"b. c #C8B4B4",
"n. c #C2B9B6",
"m. c #C3B5BA",
"M. c #C3BBBC",
"N. c #C9BCBD",
"B. c #D2BBBC",
"V. c #D0B3B5",
"C. c #B9C1BE",
"Z. c #C7C2BE",
"A. c #BBBDC2",
"S. c #B5BDC0",
"D. c #C3BBC2",
"F. c #CABBC2",
"G. c #D4BEC2",
"H. c #D8BFC4",
"J. c #BEC4C2",
"K. c #BBC6C6",
"L. c #C4C3C4",
"P. c #CCC4C5",
"I. c #CAC9C7",
"U. c #C4C5CB",
"Y. c #CCC5CA",
"T. c #C4CBCB",
"R. c #CBCBCC",
"E. c #C1CCC6",
"W. c #D3C3C4",
"Q. c #D4C6CA",
"!. c #D4CBCD",
"~. c #DBCCCC",
"^. c #DCC4C7",
"/. c #D4D1CF",
"(. c #D9D0CE",
"). c #CDCED3",
"_. c #C5CFD1",
"`. c #D3CDD2",
"'. c #DBCDD3",
"]. c #D3CFDD",
"[. c #CDD3D4",
"{. c #CED5DB",
"}. c #C7D7D5",
"|. c #D4D3D5",
" X c #DBD3D4",
".X c #D3DBD7",
"XX c #DAD9D6",
"oX c #D5D5DA",
"OX c #DAD5DB",
"+X c #D5DADC",
"@X c #DCDBDC",
"#X c #E3CBCD",
"$X c #E4CED1",
"%X c #E2D3D4",
"&X c #E2D6DB",
"*X c #E3DBDC",
"=X c #EADCDD",
"-X c #E8D6D7",
";X c #D5E1DC",
":X c #DAE0DD",
">X c #E3E1DE",
",X c #EAE0DF",
"<X c #DDDCE1",
"1X c #D7DAE5",
"2X c #E4D6E1",
"3X c #E3DBE2",
"4X c #EBDEE3",
"5X c #DBE3E3",
"6X c #DDE4EC",
"7X c #E4E2E3",
"8X c #EBE3E4",
"9X c #E3EAE6",
"0X c #ECE4E8",
"qX c #EDEAEB",
"wX c #E4E8EA",
"eX c #F2E6E9",
"rX c #F3ECEC",
"tX c #F6E8E7",
"yX c #E7ECF2",
"uX c #F8EEF0",
"iX c #FCF5F7",
"pX c #F9F6F7",
/* pixels */
"6 > Z S h z B j j l q q 4 +.B.4 4 ; : 4 l 0 l k : 6 6 6 6 ; h ..( * 0.Z.* I 6 8 8 8 0 k k j w A x.H g H Z S j 6 } $Xk w 0 0 k l ",
"k z Z Z T T g j g k x k w o.^.k 4 ; 4 g V 0 l b h h h w 0 h l T 2 : 9.W.4 e 4 8 3 3 w k 0 B j B j 6 g A 8 B B 8 7.$Xw 0 : : g l ",
"l T T k l l z T T b b k 0 [ -X-., 0 0 0 g l T T T l V j 6 0 k q : : x.Q.w k j 6 w 3 0 0 6 V j g g 8 j A j V A w 0.~.w k 0 0 k T ",
"T k l h g l l k l h h k l 7.^.6 g l j 6 6 A T b l z z w 4 4 q q k : x.Q.6 j R 6 8 B j 0 0 j g A Z 6 w Z B V B w 4.$XB l 0 0 g T ",
"l w z g > 6 g g z z s j j 6.D.5 s 6 > s s s , 6 h h w 6 4 : 1 1 0 < x.W.8 8 w > 5 j 6 6 6 6 7 j g 4 w A B 8 w w 4.%XR 0 w g 0 l ",
"[ ` K Z F S S ] H %.] J ] Y.R.N S Z S ] H H d d F H ` D D A B k j B v.N.{ ` S H ` K H H B B S S D W [ ` S Z A A 9.%X} A / ` Z Z ",
"qXXX@XXX@X7X*X7X7X@X<X7X7X<X5X+X@X@X7X7X7X7X@X:X;X.X:X>X>X>X>X*X&X*X7X7X*X7X*X8X8X0XqX8X X*X7X7X,X8XtX8X8X>X8X*X>XpX4X*X8XrX0XeX",
"8.,.I./.s.8.s.w.q.q.s.,.q.,.3.a.d.8.8.8.8.8.a.J..Xk.q.M.d.d.d.8.8.y.6.6.6.9.y.>.9.6.9.8.M. Xd.8.m.n.N.n.M.d.w.,.,.,.6.6.,.,.6.9.",
": 0 9.$X0 e e e V 4 9 e r V V Y Y V t u q : 3 w.XX} 6 l R V A 8 h k j 8 k w 4 j w 0 0 0 H W.D B j k C B 8 7 6 ; 3 3 5 6 3 3 6 7 ",
"h : 4.#Xx v u U U I v v y ~ ~ E y y v m u t 4 9.&X/ < c c h R A R I R V I U k w l k x 1 W -Xo.I I R Q R B B k 6 6 8 h k j j h 0 ",
"0 4 9.Q.e v c I w I y y y ! ! I I a u u u t 4 v.*X` 0 c 2 b =.} W R ' W k c V B k k x 1 A %X-.Q c I Q I V z k k j z l k z z 0 0 ",
"k 6 9.P.0 E E I C Y I U ! I I I V e u v u q ; v.*XK : q h ' 5.D A B A A l l B j V k q 9 K ~.[ R c Q _ Q T l T ) z z l b k z l h ",
"2 % 4.Q.q x x c V B 0 e c k I T w w c c q 9 6 m.=XH 6 k , 0 A B 8 B B B Z Z Z d g z : ; K P.` Z T ( ( R z g k V 6 > g l 0 0 k 6 ",
"A d 6.!./ Q Q ( ` K H / / / ] H K H / R A / ` g. XK 7 Z Z B Z Z M K L H H H L K / / A ` M.|.{ S } [ / / A Z B Z M 7 g Z Z D / A ",
"qX@X;X9XOX=X4X*X:X;X5X+XOXOX+X{.oXoX@XOX<X<X@X@X+XR.R.`.|.XX|.XXoXoXOXOXOXoX<X@X3X4X8X8X7X.X|.qXqX7X7X7X7X@X@X@X+X@XXXXX>X0X0XqX",
"a.h.p.2.8.6.y.M.h.i.h.f.f.g.K.T.e.3.f.f.g.e.a.a.f.f.a.,.a.d.s.s.g.t.j.!.g.3.j.M.s.s.s.s.f.a.g.j.L.j.P.R.P.L.R.P.T.@X!.j.L.M.a.s.",
"5 7 5 7 8 h h T 8 7 B 6 z g 1.j.d A B w j B 8 3 Z d 6 6 B 8 3 B 0 0 7 ~./ * 8 j 5 8 6 6 B 3 o g 8 8 B V B B k 8 Z W.W.3 w ; 6 0 ",
"j g B Z 0 k U c w j B w R R s.N.B R I k c T V k W W I l W R r e v 2 B &X7.e k j B j V V z B j h w k I R I c I I k ^.G.: : 1 q c ",
"+ j A R h k k V j j 8 6 h 0 9.M.k c c c I R T R V T I k ! R e e x k 0.,X5.w k k B d B B j V B w V B V R Q ! k r w W.v.; 4 0 c I ",
"7 S l b 0 V 0 0 w 6 6 j k 4 8.P.e x x k I R I R I l l I Q I k c x k ` !.` B l I B j j j T V h B w w V ' z.-.Q k 8 B.v.& 4 4 c e ",
"3 3 q x : k I w j 6 3 w e 4 8.Z.k t 9 0 w k k c b k k z V k q q k 9 3 n.D w 0 k k w w w k k w B 8 w j A ( R k j B G.v.& < 4 l : ",
"N Z ' ) A B W V B B 8 B A A a.j.D R A Z H S Z Z Z j Z S S D A V C B F d.{ B A T W B A V B A A M M Z S S D D D K S P.'.s.] B j j ",
"6X<X3X3X3X<X3X3X<X3X@X<X3X|.+X{.|.OX+X+X+X.X|.oX@X[.|.+X+X5X@XOXOX|.).+X+X@X3X&X&X'.OXOXoXOX|.).R.[.+X@X+X|.R.L.R.[.|.@X@X@X@X@X",
"S.A.U.`.<.1.6.y.g.g.t.a.g.t.f.j.a.d.a.e.i.i.f.j.[.h.h.A.j.h.f.a.g.a.f.f.g.g.t.g.m.m.y.j._.K.f.D.T.E.T.L.A.L.L.j.j.j.j.a.a.d.M.M.",
"g 3 ] P.w w l k w 6 w B k w w j 0 V z 6 d B 3 6.F.5 8 Z j B B B Z B g Z A j j A q q 0 8 d.q.5 8 j Z Z Z j h g 0 6 6 6 h h 0 0 6 ",
"q 4 w.P.B c U y I I I ! ! ! ! I c c c I I l : -.c.z k c I c I R T k I l c Q I e y v v r n.d.w I T l V T c k k k k c c c x x c c ",
"k 4 M.Z.3 9 c y I p I ! Y c c c I c y y e e 9 5.^.R k x U c U I I 9 I I e I Y Y x u q 4 d.q.6 R w w k V Y I k k e I y y e e y e ",
"q w d.XX`  .x y I I U ! I I U U I ! E I y e 0 z.^.w e I c y I I R 0 k I I R V I c x x w d.d.3 j w V C j k C V r e V e e I I a r ",
"1 * 0.XXB I I r 9 e p e 9 e U U y c e e k 9 6 b.H.4 0 9 q c e e 9 0 r e k e r 9 q y q 4 M.(.A ; B S B 8 6 j B j j V V k e r r 4 ",
"A S M.XX` ` -.Y ` D A V B j A / ( / A B D A S v.m.H S j A ( V R W ` D D H D W ' / / W Z M.OX6.] ] L L H S S S H H [ } } ` H / D ",
"OX<X.X.X+X@X@X@X<X|.|.|.|.).).).`.`.|.[.|.[.U.).).oX+X+XoXoX`. X@XoX}.}.{.+XOX@XoXoX<XoXoX1X1X6X6XyXyX6X1X{.).).|.oXoX@X@X@X<X@X",
"A.f.i.i.i.a.a.t.t.g.g.f.S._.U.<.1.{ 3.f.f.i.e.e.t.3.:.i.3.3.t.3.<.f.}.K.;.e.t.y.a.3.e.3.<.e.e.e.f.A.K.A.f.f.e.e.U.A.e.e.t.f.j.g.",
"M 7 d 8 6 g 0 0 0 0 6 ; P ).D.+ 3 6 6 A B V D W A B B D W C C V B S R.:.d z 2 0 w 7 w w w 9 k B k k / W ` ` / Z n.8.3 5 6 g 6 6 ",
"j j V I k k c n x q q 6 d.|.F.j 6 B W k 9 k l 0 ! R Q  .e p Y I k W (.] : q t v k 9 r y y U ~ U U I ! Q .. .Q Q 9.4.6 k k l l I ",
"T T b c c k c U x h q 3 L.R.D.j j k T k V / T T Q R T W k R Q  .V W !.` < t t t y r e y t t v U Q R R Y o.' Q ' m.9.g z h z k I ",
"l b b c b k I U c c 0 6 j.T.D.j w V k 4 R ..( R 0 z R T ( ..' R Y ' ~.| * q t x e a I e I q q I R / ` D W ' ( W s.4.6 B B R V R ",
"z k k k h h z z h : ; { R.[.g.A w C B j / W / A ; & D [ ' / ' ' D ` P.>.Z T l k R W / W / / / R A W } ` B D Y w 8.} 4 w 0 k w w ",
"/ Z A Z B D D A / A D F.R.R.g.>.5.} } 9.9.4.8.>.>.] 6.v.4.} } y.s.t.P.D.M.F.y.5.4.8.8.8.:.s.m.y.6.1.9.6.K | [ ` s.9.] ` D D D D ",
"|.R.@X|.R.OX*X*X*X X!.&X/.|.`.'.&X*X&X*X*X@X@XOX|.OX<X@X3X0X3X3X7X@X<X+X<X<X3X7XOX*X>X@X5X5X7X7X1X{.{.+XU.R.`.|.).oXOX<XOXOX X|.",
">.8..XT.,.0.4.8.8.>.} { { { ` [ | >.} +.6.>.{ L.D.{ 1.1.6.1.&.1.8.8.1.1.t.6.1.,.6.6.9.,..X2.P @.#.#.#.*.@.$.L $.$.1.1.%.$.%.>.%.",
"6 Z XXd.3 4 0 k w B w 0 9 q q q r 4 r e 4 9 & v.b.8 4 ; 0 ;   6 I w k V V 0 j B k q r j  XM   - d @ > s j k w 0 0 q k e T e 0 e ",
"h / XXd.j k e R I W I e t x x v e r e e e e 9 V.B.0 9 k 0 % 2 q _ q c Q k : 0 e c y y I -XD < : ; - k R ) c c c E E U U E U y v ",
"q W  Xd.w 0 c R k A V k U U c k e k ( l l k V #Xx.: : 6 0 : g l I 9 : : 0 9 < * q q c W =XS : < 6 ; s h l l I W ! U I W I R y y ",
"c R (.n.6 k R V B B B w W I V A k B A j V j B $Xc.< ; ; 6 g 6 A R 0 -   > d > 4 k e 0 R 4XS > > ; ; 6 h R Y Y ( I I Y W W Q Q ! ",
"l h P.6.; 0 j w j 8 7 7 Z d d B B 8 8 8 w 8 6 B.x.  o ; O ; > 6 j + X X . X + 5 > > - S @XG + @ X ; 6 w V w B V e k Y C C Y ! ! ",
"[ } Q.9./ [ ] } ] } >.:.,.>.>.{ %.{ } 4.4.4.} Q.B.7.7.9.8.9.s.9.&.$.@.<.<.<.*.L $.%.%.g.7X3.J J J J ] [ o.} >.} ' ' } } } } o.o.",
"*X*X7X+X*X8X7X*X8X8X7X7XwXpXpX7X7X7XqX0XqXiX8XtXtXiXiXiXiXiXpXpXpXpXwXwXyXyXyXqX0XrX8X0X7X+X@XoX].1X2X3X4X8XqX<X&X2X@XOX3X3X2X&X",
"] { ,.:.$.%.g.s.6.7.1.3.h.|.P.{ $.3.L.6.$.>.>.{ 9.>.1.9.,.{ { >.{ t.E.5XA.:.>.] { %.4.4.L a.M.1.&.r.u.r.%.$.3.:.Y.D.<.*.$.1.$.%.",
"6 + # $ ; > g V l h g 8 N  Xs.5 6 3 8 8 6 6 # # . # 5 # X o 3 w 0 8 P 9X} w I = : w c I V j R j 0 l d s g 6 , o 8.d.# 3 3 6 4 w ",
"z j B B j k k Q Q U R k D %Xb.j I q 0 4 V R B 5 7 M Z j 6 w W _ x k P 7X' I q U q U E ~ E I R ! I ) A B j h h 6 j.Z.7 j k I k w ",
"I V A A I T c I U I R W | -XW.' I I I e c Q ( w B B R W B V _ O.Q / a.>X[ 0 k q T R v U Q C k I T V B B j g g , P.I.7 j w k V A ",
"_ I W W I ! Q Q ! R W Y ` =X~.' _ _ ! U _  ...B B w k Q ( Q _ O.Q ` :.7XA * k R W R ( Q R V B R R V j B B j k > P.Y.d A V R / / ",
"E I W W Y I I ! l I V B 8 -X~.D ..O. .( X...' W A A V W o...Q _ ../ >.8X6 % A A / V I I j V A T R l j j d g h , '.P.B A R ( / A ",
"( Q D B W / A W W A W | K (.W.` ' ` [ } / W D B H } [ / | | W ' / ] 3.OXd ` ] / D Z z j d M Z k Z A S S Z d z g P.M.S A A / / D ",
"'.!.R.L.R.OXOX X0X&X&X3X@XqX3X'.*X X|.XX`.'.!.`.|.`.!.!.R.I.!. X X X+X@XOX`.(. X~.%X~.~.|.R.!.'.!.|.|.|.|.R.Q.Q.+X@X|. X X|.(.(.",
"9.y.|.:XR.+X7XL.Y.D.g.%.$.@.] $.$.j.@.G ] $.L `.`.<.{ 3.1.:.>.%.>.>.$.,.$.M.XX8.N.F.6.n.XXR.M.v.M.j.3.,.3.1.6.6.a.a.d.9.s.8.6.,.",
"d d `.a.+ S H X 5 5 + > 5 + - ; @ d f X - - @ F.'.5 5 d 5 # 5 6 3 ; 5 3 7 M F 3 A w o #  Xs.6 0 w j 8 B 8 w q 0 j B V w h k 4 w ",
"0 [ =X8.o 3 3 3 d g g j d d z l z 5 6 d z , ; H.H.6 g Z A j j h j j g g B B 8 ` ' w w j !.%.k q k V T ( W I n c R z l c I c k e ",
"x l ^.9.8 j w w 6 0 j A B B A V A 6 3 6 0 9 : ^.7.6 k B B B V B A g V / j B V D ..0 w B !.` k l 0 r k I I k c c k R I I I e c q ",
"q 1 B.7.& 4 w w B B B A F B B j k B j w k 0 % H.7.4 w A B B C B A j h B j j B k w e 8 B  X} 0 : V e c ! ( T U c w W R l I V I c ",
"q Q G.} & : ; 4 w e 0 w i 3 4 w w 8 4 4 w : & B.%XB 4 B 8 4 w w g 8 4 j A 6 w w 0 0 3 } -X=.h T R e q e T k c k k j e 0 0 e q q ",
"R 5.~.8.S A V ` W [ [ } { K | o.| | >.0.5.o.} N.=X>.` } ` K | ` H H S ] =.` [ R R j S N.&X4.A [ / W W W D V / ' ] B D ` W / ' ( ",
"8X+X9X5X5X7X7X*X*X8X8X8X@X7XqX,XrXrXrXqXeXeX8X7X7X>XqXrXqXrXeXuXrXqX7X*X0XeX4X=X=X*X*X7X+XOX4X*X7X8X8X8X@XXXOXXX+X|.!.+X@X>X8X=X",
"L.h.p.p.C.T.+X+Xj.a.a.3.:.j./.j.8.8.,.,.M.8.3.:.;.3.3.3.3.<.1.Y.+Xf.I.R.,.a.s.9.s.d.J.J.a.j.`.!.qXXXC.j.k.C.C.p.K.}.i.l.E.J.j.q."
};
