/* XPM */
static char *_bdd0153aedd4cf0bfb8511c4deab02e[] = {
/* columns rows colors chars-per-pixel */
"64 64 240 2 ",
"   c #000008",
".  c #000A24",
"X  c #0F2A4A",
"o  c #00091E",
"O  c #002135",
"+  c #BFBFDB",
"@  c #CECFE9",
"#  c #CDCFEA",
"$  c black",
"%  c #CBCDE5",
"&  c #051630",
"*  c #C9CAE4",
"=  c #061934",
"-  c #03112B",
";  c #0E2441",
":  c #1E3F62",
">  c #001929",
",  c #00293C",
"<  c #C1C2DE",
"1  c #002C40",
"2  c #0D2543",
"3  c #224265",
"4  c #002D43",
"5  c #002A3E",
"6  c #102D4C",
"7  c #0D2745",
"8  c #B5B5D3",
"9  c #0C223F",
"0  c #C3C4E1",
"q  c #00010D",
"w  c #153254",
"e  c #003147",
"r  c #883372",
"t  c #0E2947",
"y  c #A2A2C1",
"u  c #173456",
"i  c #75306A",
"p  c #CCCCE8",
"a  c #010E27",
"s  c #BBBAD7",
"d  c #002032",
"f  c #001C2D",
"g  c #001A2B",
"h  c #152A41",
"j  c #0A1B34",
"k  c #122E4E",
"l  c #000105",
"z  c #2D5373",
"x  c #19395B",
"c  c #CCCFE8",
"v  c #001E2F",
"b  c #26486A",
"n  c #BDBDDA",
"m  c #315577",
"M  c #0B1F3A",
"N  c #071C17",
"B  c #B2B1D1",
"V  c #B1B1CE",
"C  c #ACADCA",
"Z  c #11253E",
"A  c #82316E",
"S  c #012536",
"D  c #04142C",
"F  c #1B3C5D",
"G  c #2F5174",
"H  c #0C231F",
"J  c #A9A9C8",
"K  c #30644B",
"L  c #061915",
"P  c #9697B6",
"I  c #903C7D",
"U  c #9D9DBC",
"Y  c #B8B8D5",
"T  c #AFAFCD",
"R  c #002638",
"E  c #6F2C63",
"W  c #813873",
"Q  c #8F3879",
"!  c #407E5E",
"~  c #C7C7E2",
"^  c #A7A7C5",
"/  c #7B326C",
"(  c #03120F",
")  c #0E1F36",
"_  c #2A4E71",
"`  c #3B3A5C",
"'  c #D2D4ED",
"]  c #A0A0BF",
"[  c #964284",
"{  c #000612",
"}  c #234666",
"|  c #182F47",
" . c #294B6D",
".. c #8D3575",
"X. c #53567A",
"o. c #132A4B",
"O. c #853A77",
"+. c #020F25",
"@. c #375B78",
"#. c #933C7D",
"$. c #616385",
"%. c #652963",
"&. c #7A3770",
"*. c #D5D9F1",
"=. c #1C334B",
"-. c #777898",
";. c #752A63",
":. c #3A7456",
">. c #030F1E",
",. c #953E81",
"<. c #355D82",
"1. c #9B9BB9",
"2. c #3C607D",
"3. c #00344B",
"4. c #532865",
"5. c #133051",
"6. c #38215E",
"7. c #356A51",
"8. c #D1D1EB",
"9. c #5C5E7E",
"0. c #152C46",
"q. c #812E6A",
"w. c #994386",
"e. c #376F54",
"r. c #478868",
"t. c #642457",
"y. c #5B2D66",
"u. c #32597E",
"i. c #6E255C",
"p. c #6F7290",
"a. c #8789A7",
"s. c #893D7B",
"d. c #3C775A",
"f. c #3F4062",
"g. c #A4A5C3",
"h. c #5C2254",
"j. c #1F1A55",
"k. c #9999B7",
"l. c #4B4C6C",
"z. c #44476A",
"x. c #672F6D",
"c. c #9494B3",
"v. c #20384F",
"b. c #7B7B9E",
"n. c #6A6A8C",
"m. c #44235D",
"M. c #223D60",
"N. c #8A3776",
"B. c #7B2D67",
"V. c #8182A2",
"C. c #385362",
"Z. c #8E8EAB",
"A. c #281D5E",
"S. c #2F314D",
"D. c #112745",
"F. c #8F4184",
"G. c #8F8EB0",
"H. c #462B6B",
"J. c #666588",
"K. c #19154C",
"L. c #152639",
"P. c #416580",
"I. c #081E19",
"U. c #16212B",
"Y. c #0F2623",
"T. c #2B5944",
"R. c #1C3351",
"E. c #6E3576",
"W. c #4C5271",
"Q. c #353654",
"!. c #4D916E",
"~. c #9295B1",
"^. c #8A8BAC",
"/. c #1A3A2E",
"(. c #9C4489",
"). c #2B2365",
"_. c #6F326A",
"`. c #4F2051",
"'. c #456C8B",
"]. c #3C6284",
"[. c #253C54",
"{. c #4D6E86",
"}. c #4A3078",
"|. c #7D819D",
" X c #565683",
".X c #502761",
"XX c #426786",
"oX c #1D4235",
"OX c #783B78",
"+X c #1F3659",
"@X c #33476A",
"#X c #3079C8",
"$X c #321A53",
"%X c #274156",
"&X c #192F3D",
"*X c #143028",
"=X c #204C45",
"-X c #929D93",
";X c #A0A4B0",
":X c #8F93BA",
">X c #8F548A",
",X c #421D4F",
"<X c #283E5D",
"1X c #36286C",
"2X c #8C92AA",
"3X c #557C94",
"4X c #2B465A",
"5X c #272D41",
"6X c #644271",
"7X c #4E3A65",
"8X c #0E4043",
"9X c #605087",
"0X c #7D8DB4",
"qX c #5F7DAD",
"wX c #66747E",
"eX c #7A4B7F",
"rX c #363765",
"tX c #507E6E",
"yX c #3472B9",
"uX c #232351",
"iX c #3F5A6E",
"pX c #9C6F9F",
"aX c #594777",
"sX c #B29CC1",
"dX c #8CA961",
"fX c #835F8C",
"gX c #8C9F79",
"hX c #392557",
"jX c #A789B3",
"kX c #898D9C",
"lX c #2D5651",
"zX c #1F1942",
"xX c #13123F",
"cX c #967BA1",
"vX c #A490B5",
"bX c #6B8687",
"nX c #426FA9",
"mX c #3A70B0",
"MX c #3C264A",
"NX c #002A1E",
/* pixels */
"P.P.2.2.XXW.W O.W I &.s.W s.,.s.[ O.[ w.F.H.E.(.w.(.(.s.F.(.(.w.E.F.&.E.(.(.(.s.F.}.OX(.[ w.O.,.[ [ I &.O.I #.6X<.].<.<.<.].'.3X",
"P.XXP.2.2.l.Q O.&.#.&.O.W O.s.W I W [ [ s.H.OXw.[ [ w.F.OXw.w.(.OXF.s.y.F.w.w.s.F.}.E.w.F.[ O.O.,.,.O.W W I Q aXXX].<.<.<.<.'.3X",
"@.2.2.@.m 6XQ O.i Q W &.W O.O.W N.W ,.I I H.E.w.[ [ w.F.E.s.[ w.s.s.[ y.OXw.[ O.I }.x.,.W #.O.E.I I W O.&.O.Q aX'.].<.<.<.<.'.3X",
"m m m m m 7XN.N.i / N.i i N.W &.N.&.I I #.4.y.,.,.,.,.I x.&.,.[ I O.w._.y.,.,.W I }.x.#.&.#.W x.I I / W r / Q 6X'.XX].<.u.<.XX'.",
"G G m G m @X_...r A ..r %.r r 4.W i / I #._.m.Q #.#.#.#.y.x.Q ,.#.W ,./ 6.E.#.&.I H.i I / #.i y.Q Q / A ..i r 6XXX'.].<.u.u.<.<.",
"G G G G m m f./ ..r r E.E A ...XH._.E i Q N.m.x.#.I Q #.4.H.W #.I &.I i 6.}.Q / s.4.r N.i Q 4.4...N.i A ../ A _.2.].<.u.u.u.m u.",
"G z z z G G G f./ r r y.y.A ../ 6.H.i / E A i hXy.N.Q Q 4.1Xi #.Q / Q %.).}.A A &.%.Q A / / 6.%...r E A ..i A _.G m m m m z m m ",
"_ z z G G _ G G 7Xr ..x.6.E r r E 6..XA ..E / E 6.4.r ...X).x.Q N.i ..`.).x.B.A %./ ..i A m.6.A r A E r r E A 7XG G z z z G z z ",
"_ _ G _ _ _ _ G @Xi r A H.m.q.r r E 6.6._...E r i 4.i ...X).y.Q A B.A ,X1Xx.i E E A i E 4.A.E A r ;.;.r q.E y.@Xm m @.m z z z z ",
"_ _ _ _ _ _ _  .@X%.q.A %.A.m.;.A r B.m.6.x./ i r E i ..y.).4...i A ;.hXH.%.%.E i / &.eXH.%./ ;.q.t.q.q.B.h.` @.@.P.2.@.m m u.@.",
" ._ _  . . . . .b .XB.i q.m.A.6.m.4.i >X^.1.jXpX>X&.i r _.A..Xr E r t.6.m.h.%.OXpXvXs 0 s >XE B.t.B.B.;.E `.l.{.{.{.XX2.@.@.2.2.",
" . . . . . . . .@XMXi.%.q.B.`.$XA.A.aX* *.*.*.' % B sXjXpX9X9X>XeX>X6X9XfXcXsX+ ' *.' @ *.Y &.t.q.q.t.q.h.h.y.{.3X{.{.P.@.@.@.m ",
" . . .b b b b  .rX`.t.4.4.q.q.;.E .XG.*.* @ @ @ 8.*.*.*.' 8.* ~ ~ ~ * p ' *.*.' @ c c c p 8.fX;.%.`.E B.`.;.h.rXP.P.P.2.m G _  .",
"b b b b b b b b ` ;.h.i.6..X%.%.x./ sX' p # @ @ @ @ @ @ 8.@ 8.' ' 8.8.@ @ c p c # @ # # c 8.fX6.m.%.B.t.h.i.m.+Xm z z _  .b b b ",
"b } } } } } } } hX;.i.i.%.A.A.A.).1Xy *.p # # # @ @ @ @ @ @ @ @ @ @ @ @ @ # @ # # # # c c p 9X4.;.i.t.i.t.t.6.M. .b b } } 3 3 } ",
"3 3 3 3 3 3 3 } R.m.i.h.;.%.A.j.j.A.:X*.p # @ # # @ @ @ @ # # # # # @ # # # # # c @ @ % c ~ eXt.i.i.;.t.t.t.uXM.3 3 3 3 3 3 3 3 ",
"3 3 3 3 3 3 3 3 M.uX$X$X,X`.$Xj.j.j.:X' * c @ # # # # # # # # # # # # # # # @ c c % % % % * eXh.h.h.h.i.i.,XD.3 3 3 : : : : : : ",
": : : : : : : : : M.o.j.K.K.K.j.j.1X8 @ * * % % @ c # # # # # # # # # # @ c c % % % % % * p J.j.j.$Xi.i.,XzX+X3 : : : : : : : : ",
"F F F F F F F F F M.+XK.K.K.K.K.j.b.8.~ c ' c * % % c c c @ @ # @ c c c c % % % * % 8.% ~ @ B }.y.t.`.$XxXR.3 : : : : : 3 } 3 3 ",
"x x F F F F x F F F M.| ` ).j.j. X* * @ n 1.s ' * * % % % % % % % % % % % % % ~ 8.0 ^ + # ~ 8.jX,XzXK.xXo.3 : : : : : } z @.z  .",
"x x x x x x x x x F F a.@ J rXA.U 8.* T k.] Z.] 8.c * % % % % % % % % % % * * ' 8 Z.Z.Z.^ * p Y rXj.uXf.<X3 : F F F 3 z P.{.2.z ",
"u u u u u u u u x F M.g.U 0 P rX8 % C J p ~ J J.p.+ 8.~ * * % % % % * * * p p Z.n.U 0 p V ^ < *  XuXc.# a.M.: x x x :  .@.2.2.z ",
"u u u u u u u w u x M.P n.G.% -.s s 8 p C P k.] V.J.^ ' * * * * * * * ~ 8.+ n.9.c.~.a.] + + T *  Xb.T b.V @XF x x x x } @.iXiXz ",
"w w w w w w w w w +XM.~.n.$.n V 8 ~ s ~ * p # p 8.8 n.a.% % ~ * * * ~ # V 9.-.< p p % + Y # 0 < a.+ -.$.^ G x x u u u x } b } } ",
"w 5.5.w w 5.5.5.w u M.P V.$.G.+ V * ] p.1.T Y 0 * # 0 p.-.+ % ~ ~ ~ 8.J X.Z.' p p < Y T g.|.g.+ Y y X.b.^ iXu u w w w w u u u u ",
"k k k k k k k k 5.u +Xk.* P 9.J V < * ~.J.~.U p.kX1.2Xa.n.b.< * ~ ~ U J.V.~.V.-.wXkXa.a.9.$.< Y 1.$.V.T J @Xw w w w w 5.k k k k ",
"6 6 6 6 6 6 6 k k w 5.|.8.b. Xb.C < < 0 g.k.Y V C Y 1.n.c.T < ~ * ] -.:XZ.p.y C kX< + 2XV.V * g.9. X] 8 ] <Xw w 5.5.k 6 6 6 k k ",
"6 6 o.6 6 o.6 6 6 k 5.<X] y X.-.J n + + 0 8 V 0 * 8 c.V.J c 0 ~ Y U p B b.^.8 0 # ~ V ^ n 0 < ] n. Xa.@ p.w w 5.k k 6 6 6 6 6 6 ",
"o.X X o.o.o.X X o.o.k 5.<XP ^.X.a.s + + + < ~ < < < s n < 0 0 * V Z.* < Y B + 0 + 0 ~ ~ < + + |.9.$.s ^.+Xw 5.6 6 6 6 6 X X X o.",
"t t t t t t X t t X X 6 5.+XV.$.X.C < n + s C < n + 0 < < 0 < ~ C -.< 0 0 ~ 0 < 0 8 s + n < Y $.9.T ^.R.w k 6 X X o.X X X X X X ",
"7 7 t t 7 t 7 t 7 t t t o.k [.V.J.1.< + ~ J qXs 0 < + + + < + ~ ^ $.V 0 < < < + 0 ~.^ 0 n 0 y X.] ~.R.w k X X X X o.X X X X X X ",
"2 2 2 7 2 2 2 2 2 2 7 7 7 o.X $.n 1.s g.y qX#X0XC C n + + + n 0 ]  Xc.~ n + + n 0 -X;X0 n < P y B <X5.k X o.o.X X X X t t t t t ",
"; 2 2 2 ; ; ; ; ; 2 2 2 2 7 o.R.~.J 8 :XmX#X#X#XnX^.+ n n + n 0 k.X.-.< + + + + + -X;X< n Y g.n X.k k X X X X X t t t 7 7 7 7 2 ",
"; 9 9 ; 9 ; ; ; ; ; ; ; ; 2 D.0.[.$.g.< 0X#X#XyXU + s s s s s < ~.X.$.T + n n n 8 gX-Xn n V p.z.k k t t t t t t t t 7 2 2 2 2 2 ",
"9 9 9 9 9 9 h h ; ; ; ; ; ; ; D.o.D.b.< :XyXyXyXy s 8 Y Y s Y + c.X.X.P + s s n J dX-XY n U R.o.o.7 7 7 7 7 t X t t t 7 2 ; 2 2 ",
"9 ; Z ; 9 9 h | | h ; ; ; ; 9 ; D.0.9.n 0XqX^ qX0Xs 8 Y Y Y 8 s 1.X.X.-.s Y Y n ;XdXgXB < -.o.o.2 ; 2 2 2 t =.v.R.R.R.t 2 ; ; 7 ",
"h h | h Z h h =.=.| h Z 9 9 9 9 ; D.l.J g.C Y T g.8 8 8 8 8 8 s y X.X.p.s 8 8 s ;XdXgXB Y W.D.D.9 ; ; ; 7 | 4XC.C.C.%X=.0.2 ; 0.",
"Z h h h h Z h h h h Z Z 9 9 M M 9 2 z.G.8 T T B B B V V B V V 8 T $.W.~.s 8 8 8 T -X;Xs y z.D.; 9 9 9 ; D.v.C.iXiXC.4X%X=.| | v.",
"j M M Z Z ) M M M ) Z M M M M M 9 9 W.-.P B C T T T T T B ^ k.B ^ X.p.V B B B 8 8 8 8 T Z.W.; ; 9 9 ; ; 0.[.C.C.C.4X%X4Xv.=.v.[.",
"= = = j j = = = = j j j = = = = M 9 f.P 9.y T C C J B V T V C B P V.T V T B 8 J C V Y ^.1.W.0.| | | | | =.v.%X%X[.v.=.=.| =.v.[.",
"& & & & = = = & & = = j = = = = M Z lX^ p.X.^ C ^ Z.P ] ] y J T B 8 T C J J ] c.J Y Z.p.V C.| =.=.=.=.=.| 0.0.0.0.0.h h | =.v.[.",
"& & & j ) Z ) j = j ) ) j = & = = =Xr.k.1.l.9.g.J ^ k.|.J.9.J.p.p.n.J.J.-.a.U C 8 P l.G.J tX=XZ Z Z Z Z M M M M Z h h 0.| =.v.v.",
"j ) ) L.&X&Xh ) ) L.L.) j = & = j e.!.2XJ J.` $.^ g.J J U c.G.V.V.b.a.P y C C T P l.X.y 1.!.7.j j = = = = = = = M Z h Z Z Z h h ",
"L.L.h L.&X&X&XL.) ) ) ) ) j & j ) e.r.|.C -.z.` n.^ ] y ^ c.^.1.] ] G.P J ^ C k.l.z.$.C 2X!.7.j j & = = = = & = = j M j j = = j ",
") j M j j ) ) ) j & & & & & & = L.e.! wXJ a.z.z.` -.g.U y ~.9.l.l.W.n.U g.^ U l.z.z.n.T bX!.7.) = & & & & & & & & & & & & & & & ",
"- - a a a - D - D - - - - - D D oXe.r.tX1.P l.f.f.` V.y U y ] G.^.G.y y y ] X.f.z.Q.b.2Xr.!.:.&XD & D D D D D D D D D D & & D D ",
"a a a +.a a a a a a a a a - - S 8X:.d.r.wXU W.Q.f.` ` a.U k.U ] ] ] U U y 9.` z.` f.-.tX!.! ! 8XO D D - - - - D - - - - D D D D ",
". . . . . . . . . . . a a a v 3.=Xd.e.r.! wXJ.S.` ` Q.z.G.1.P k.k.k.k.] p.Q.f.f.Q.f.tX!.! ! ! 8X3.g - - - - - - - - - - - - - - ",
". . . . . . . . . . . . a a 1 e K e.! 7.r.! C.S.S.` ` S.W.P P c.P P U -.Q.` f.Q.5X7.!.! :.r.:.=X3.5 >.- - a a a - - - a a a a a ",
". . . o o o o o o . . . o d e 4 lX:.d.d.7.r.! T.U.S.Q.` S.9.c.P P k.-.Q.` ` S.U.=X!.! e.r.d.! 8X3.3.S +.a a a . a a a a a a a a ",
"o o o o o o o o o o o >.g e e e S :.7.! :.K ! :.*XY.U.5XS.5Xf.9.$.W.S.S.5XL.Y.*XK :.7.r.d.! e.S 3.3.3.S g +.. a a . . . . . . . ",
"o o o o o o o o o >.v d 4 e 4 e > oX! K ! :.K K /.Y.H H H U.U.U.U.U.U.Y.H Y.Y.*XT.e.r.d.:.r./.g 3.e 3.e 1 5 v +.o o o o o o o o ",
"o o o >.+.D +.>.f , S 4 e 4 4 4 g { K d.K :.d.7.oXI.I.H H H H H H H H H H H I./.d.! e.7.r.K { v e e 3.3.3.3.3.1 v >.{ q { { q q ",
"{ o >.>.+.j O 5 1 S 5 4 4 4 1 4 f q I.e.d.K K d.K Y.I.L L L N N I.I.N N L I.H T.d.K 7.! :.H q v e e e e e e e e e 4 O +.{   l l ",
"  { >.g R 1 4 4 R 5 4 4 1 1 1 1 f q { H 7.d.K T.K /.H I.I.N L L L L N I.I.H *XT.T.e.! :.Y.{ q d 4 4 4 e e e e e 4 e e e 5 v >.q ",
">.v , 1 1 1 1 1 4 1 1 1 1 5 5 1 v q q q N T.:.7.K oXI.N N N I.I.I.I.I.N I.I./.K e.d.K H q { q d 4 1 4 4 4 4 4 4 4 4 4 4 4 4 4 R ",
"5 5 5 5 5 5 5 5 5 5 5 5 5 5 5 , v q q q q { /.K e.K Y.L ( ( ( ( ( ( ( ( N Y.K :.K oX( q q q { O 1 1 1 1 1 1 1 1 1 1 1 1 1 1 5 5 ",
"R , , 5 5 5 5 5 5 5 , , 5 , , R v {     q q q L /.T.oXI.N L L L L L N N N /.T.*XL q q q q q { O 5 5 5 5 1 1 5 5 5 5 5 5 5 5 5 5 ",
"S S S R R R R R R R R R R S S O d {         q   l l L ( ( ( ( ( ( ( ( ( l ( $ $   q     q q { O R , , , , , , , , , , , , , , R ",
"O O O O O O O S O O O O O O O O v {               $ $ $ $ $ $ l l $ $ $ $ $ $               { O O S S S R R R R R R R S R S S S ",
"d d d d d d O O O O O d O O d d f {                 $ $ $ $ $ $ $ $ $ $ $ $ l               o d O O O O O O O O O O O O O O O O ",
"f f f v v v v v v v v v v v f f f {                 l $ $ $ $ $ $ $ $ $ $ l               l >.v f v d d d d d d O O d d d d d d ",
"g g g g g g g g g g g g g g g g g >.              l   l $ $ $ $ $ $ $ $ $ l                 >.g g f f f f f f f f f f f f f f f ",
"> > > > > > > > > > > > > > > > > >.              l l   l $ $ $ $ $ $ $ l l                 +.> > > > g g g g g g g g g g g g g "
};
