/* XPM */
static const char *NzA5OTU0MjIx[] = {
/* columns rows colors chars-per-pixel */
"64 64 256 2 ",
"   c black",
".  c #191617",
"X  c #333233",
"o  c #770D07",
"O  c #2E2B2E",
"+  c #B1782B",
"@  c #37373B",
"#  c #141211",
"$  c #201E1D",
"%  c #3D3D40",
"&  c #443F43",
"*  c #913F3B",
"=  c #223F5A",
"-  c #D2CFC7",
";  c #555051",
":  c #C08A3D",
">  c #4F4E4C",
",  c #C7C9CD",
"<  c #A3A6A4",
"1  c #BC945E",
"2  c #282221",
"3  c #B98847",
"4  c #100B0A",
"5  c #434549",
"6  c #354552",
"7  c #3A4D5F",
"8  c #ACA6A2",
"9  c #C18F4B",
"0  c #7E7C7E",
"q  c #5D5B5E",
"w  c #B98D51",
"e  c #6F6F70",
"r  c #C9A36E",
"t  c #6F8497",
"y  c #6A0A09",
"u  c #D1D3D2",
"i  c #4A4743",
"p  c #737579",
"a  c #655E5E",
"s  c #5F5549",
"d  c #4D5157",
"f  c #942825",
"g  c #705C5B",
"h  c #8E8E8E",
"j  c #34506A",
"k  c #2C465C",
"l  c #98A4B2",
"z  c #AA7328",
"x  c #5F4949",
"c  c #BFBCB2",
"v  c #193A5F",
"b  c #1B1C24",
"n  c #BD8433",
"m  c #82858B",
"M  c #E4E7E2",
"N  c #65696D",
"B  c #3A3232",
"V  c #781D16",
"C  c #A14C4C",
"Z  c #DCE1E3",
"A  c #615453",
"S  c #485D35",
"D  c #C2A785",
"F  c #B68139",
"G  c #923231",
"H  c #BCA280",
"J  c #1C354B",
"K  c #D2BEA2",
"L  c #D0C0AF",
"P  c #272628",
"I  c #090605",
"U  c #BDB1AC",
"Y  c #476179",
"T  c #851B17",
"R  c #4A484E",
"E  c #959091",
"W  c #666462",
"Q  c #877B77",
"!  c #CCB7A7",
"~  c #868C97",
"^  c #4F6940",
"/  c #C8AB84",
"(  c #575F60",
")  c #D0D7E0",
"_  c #BDC0C0",
"`  c #CFB38B",
"'  c #85302D",
"]  c #133456",
"[  c #546B7E",
"{  c #A9675F",
"}  c #FBFDFD",
"|  c #A7A9AE",
" . c #A56716",
".. c #9A9EA1",
"X. c #6F5252",
"o. c #001E3C",
"O. c #AE8249",
"+. c #AF8F64",
"@. c #607755",
"#. c #D8DADA",
"$. c #B1731C",
"%. c #785B34",
"&. c #7D7776",
"*. c #944945",
"=. c #81706E",
"-. c #685B54",
";. c #405770",
":. c #493E2F",
">. c #57656F",
",. c #C1B4A2",
"<. c #939A9D",
"1. c #4B5967",
"2. c #BD928B",
"3. c #726762",
"4. c #614B29",
"5. c #6D6869",
"6. c #B27C72",
"7. c #402827",
"8. c #8F100B",
"9. c #C8B698",
"0. c #C1AD90",
"q. c gray69",
"w. c #554241",
"e. c #A19E99",
"r. c #AFA395",
"t. c #869576",
"y. c #3B572D",
"u. c #3B5C7E",
"i. c #7E6B4D",
"p. c #587149",
"a. c #AF9575",
"s. c #A6726A",
"d. c #6E8464",
"f. c #909398",
"g. c #AD7A37",
"h. c #A4B0C0",
"j. c #EDF5F8",
"k. c #C19693",
"l. c #C19C6B",
"z. c #848580",
"x. c #A5413B",
"c. c #55585A",
"v. c #5C748B",
"b. c #274669",
"n. c #C6CFD5",
"m. c #443436",
"M. c #9C9088",
"N. c #D4C7C1",
"B. c #C4A579",
"V. c #BAA38B",
"C. c #6A7A5D",
"Z. c #B16E68",
"A. c #CCB7B7",
"S. c #C49557",
"D. c #993E38",
"F. c #786A69",
"G. c #CEC8BA",
"H. c #8D6E48",
"J. c #533230",
"K. c #476938",
"L. c #DBCBB0",
"P. c #AB9891",
"I. c #9E8B79",
"U. c #B99A71",
"Y. c #83110C",
"T. c #0F2E49",
"R. c #E0DCCF",
"E. c #A08057",
"W. c #6B5B45",
"Q. c #001533",
"!. c #90796D",
"~. c #A37639",
"^. c #7A8C70",
"/. c #354C1E",
"(. c #6B7886",
"). c #798DA5",
"_. c #ACB8AF",
"`. c #657D93",
"'. c #7D907A",
"]. c #917857",
"[. c #8A8688",
"{. c #9F5D53",
"}. c #E2E0D7",
"|. c #872720",
" X c #889BAC",
".X c #767770",
"XX c #9D9B8D",
"oX c #788898",
"OX c #9F5B5D",
"+X c #A16C27",
"@X c #BB8C82",
"#X c #362423",
"$X c #E6EFF6",
"%X c #2A2F38",
"&X c #DDCEBE",
"*X c #8E1B1C",
"=X c #91887D",
"-X c #BC9F95",
";X c #E5DAC2",
":X c #C2AF9B",
">X c #755326",
",X c #5B7896",
"<X c #4C6A89",
"1X c #7A7060",
"2X c #956526",
"3X c #B1B8BB",
"4X c #022249",
"5X c #325278",
"6X c #975451",
"7X c #CFDFE9",
"8X c #B1B2A1",
"9X c #243847",
"0X c #B08959",
"qX c #C7C7C3",
"wX c #E7E7D8",
"eX c #C5A5A2",
"rX c #936E3A",
"tX c #F0F1E4",
"yX c #B97F7F",
"uX c #A95755",
"iX c #AA504C",
"pX c #554746",
"aX c #361C1B",
"sX c #AD9784",
"dX c #261010",
"fX c #4F623A",
"gX c #9AA391",
"hX c #405128",
"jX c #C9C0BC",
"kX c #242730",
"lX c #9E7376",
"zX c #8A612C",
"xX c #8292A0",
"cX c #CB9E5D",
"vX c #0D2535",
"bX c #728488",
"nX c #712926",
"mX c #85653D",
"MX c #633C38",
"NX c #2B1817",
"BX c #5F6E7C",
"VX c #A98584",
"CX c #9B8468",
"ZX c #7E6159",
"AX c #813D34",
"SX c #CCB0AF",
"DX c #5E5036",
"FX c #EDEFEC",
"GX c #D0AA75",
"HX c #73664E",
"JX c #E1E8EF",
"KX c #7994B1",
"LX c #000D25",
"PX c #9BA997",
"IX c #8C9982",
"UX c #B0C1D0",
/* pixels */
"                                                                                                                                ",
"                                                                                                                                ",
"                                                                                                                                ",
"                                                                                                                                ",
"                                                                                                                                ",
"                                                                                                                                ",
"                                                                                                                                ",
"                                                                                                                                ",
"                                                                                                                                ",
"                                                                                                                                ",
"                                                                                                                                ",
"                                                                                                                                ",
"m h.<X( 1Xu.).~ b P b d h.,Xe i.b.3XM R %XV.r B.: 9 9.}.[.b ~ ,.e.%X3.&XG.l.3 1 l.S.-.b l ) u.6 + 1X).f.W 5 N l t 6 2XJ ] l ~ O ",
", j.t 7 O.;.KXh.p @ q l ).u.O.i.v (.8 q % 1 : / l.- - B.9 a.V.S.1 r.w S.L M / ` w 3 sX~ 5 % ] v N 0 v t  Xh.l v.= %.a b.j @   ~ ",
"; (.] v ( CXj ,X).h. XKXu.3.1X;.b.7 . W - r l.` B.G.7XB.n cXGX: 9 ` cX9 L R./ l.K L &X$X> 5 l h.>.2X3.9XY 5Xv.T.s 2X9X`.7Xp X | ",
". R ).v.;.F ].6 u.Y Y ;..X9 7 `._ _ R E }.K $X` : cX/ K 0.ZXI.r D 0 1XL.L.r : w Z j.! #.e q } v.o.k H.z W.rXs rXmX5XQ.J 7Xp X | ",
"% m } t T.k HXF i.3 ].9 E.Y v b.u q.@ 0 ` / Z / 9 +.#.$X, 7.Q =.F.; & 3Xu 8 ].K K 9.3 1 @ kX0 1.= `.J @ e DXW c.vXv.).1.$ 5 . > ",
". % m 1.;.<Xv 7 >.W.N >.k oXl >.X 5.kXg 9 9 S.L.r.b 0 ; 5.U U pXpXc q.5 A ; B #.j.K n : 8 h X %Xn.) = = xXQ.k oXvX`.} f.# p bX'.",
"( q # B j.l T.Y t o.[ t v ~ } ..$ 5.D / r w K - r.a < q x M FXVX!.M }.0 E U Q X.8 E ZXD S.S.I.& N 0 %Xh.#.7 BX$Xh X e O p C./.^ ",
"d.d.m ; f.c.%Xn.n.6 f.j.p @ 0 & ; D : : H & a 3.m.u j.2.*XyXN.G * N.2.C SX} 8 #XQ x x :XF + a.b . X . <.< 2 i n.p   i . q @.y.@.",
"K.K.<.. P P 2 E <.$ a 3X; # q b ; ` n : D 5.=.| X.6.M 6.T C A.G G A.C Y.k.u C =.u c q Q 1 w D H.f.) m 4 P @ % X $ h u E # q gX<.",
"@.d.m R | u q I O O % . & q.Z a.F r D 9.g Q $X}.x.8.k.N.f G eX* G -XD.G A.C *XuXR.jXO m.z.W F + r N.L ; d r.r.5 % #.< N # R $ 5 ",
"p m P O n.} 0 @ &.H r.@ s L.` r : F x Q x MXyXjXiX*Xf N.C Y.{ * G Z.T OXyXf f V.Z.f X.XXpX% U.w - ! 3 w 0.+ $.sXO X 2 # q.< . N ",
"# 2 a % X ; $ 5 H n 3 U.: 9 &XJXr 9.A g #.OX8.C @Xf *XC iX6.@XSXA.k.eXOXG *X{ 6.*XY.{ tXXX.X- 0.- Z 3 + D + + ,.5 5 N b _., 7  X",
">.d FXe.. a O d :X: : / 9 cXZ K L.qXF.q.} SXf *Xx.iXx.2.yXe.h h < h z.k.SXuXuX*XT {.L K 3.4 e.;X1 1 B.l.1 :XU q % ) ) T.= ).Q.= ",
"j v l t 7 }.- > 5 sXU.l.9 B.: n K 8 J.X.uXyXeXG *XuXeXn.p 5.8 X.X.8XQ 5...P.@XD.C 2.D.f MXi A W.+ $.l.O.+ A @ O 4 oXl k %Xc.4.; ",
"k k Y ] ] m ~ @ O 5 X F n r B.n mXm.!.{.8.8.iXyXC , 5.a NXqX} ^.d.wXc #X&.q gX6.* |.T T @X;Xx % / F #.9.D R . q...o.] ( +X%.zXi.",
"rXz HX~.1.5X4X;.- > X ,.S.Z G.GX| X.L.;XZ.f 8.|.k.< &.- .X@.gXK.p._.p.@.M c e jX@X|.{.-X! K !.h R./ #.L M [.5 ) , j 4.~.6 J k v.",
"6 6 1.W.].HXv bXwXz.> , L.- / R._ g sXk.! k.D.{ n.-.U } d.hX^ ^ ^ @.K.t.- e.2 z.,.*.{ D.T AX7.w.Z r g.B.JXi   1.k v.].:.j [ l xX",
"`. X`.u.R n ( u.Y kX4 0 ! : n &XE #XnX8.*Xx.C s.| aXs t.C.S p.'.t.@.p.'.S fX; a =X@Xo o o {.M.=.c.E.$.+.5 & e.;.Q.4.%.k bXm % @ ",
"m N f.xXu.N ~.J ] m a b :.n n MXw.r.-Xx.f 8.C G.A , d.S K.d.t._.8 PXPXS ^ t.tX=Xs V.* { 2.L.tX< I E GX=X  W } q.Y HX> j z.#   4 ",
". # $ m  Xj O.e  XtXU $ @ D / & x JXj.&XeX{ x.I.g FX- d.p.^.c A B 0 _.^.C.IX8XQ =.s.* 6X*.' -X[.[.H 3 a.&.O p j 6 ~.> t F.I # # ",
"$ $ # B f.`.W i.j [ .XO h l.3 a.0 A OXf G f iX3Xx g C.fXS ^.[.NXm.B 8 ^.^ y.p.#Xs ! V y y y AXNXa 1  .F e.$ % T.J zXR t 5.  4 # ",
". $ # @ ..5Xs ~.] v % # I.: $.cXF.aXnXY.Y.Y.iX, x g C.S fXXX..O NX& ..'.p.^.8XE 3.s.*.{.{ s.:Xr.-.F.l.a.& d Z ..Y s :.[ e.i 4 4 ",
". I I W oXj W -.t c c % &.1 9 CXE ..jXk.k.Z.D.lXg #.j.^.S ^ gXXXA [.gXhXS C.;Xr.W 9.f D.*.Z.;X! dXx w 0X$ $ | BXQ.:.%.;.1.<.&.h ",
"e 5.0 ..t u.+XW.v < c 2   CXGXw.dX8 j.{ * |.' #.g =.h y./.fX^ t.IXt.p.p.hX/.pXg e.6.|.o o o ZX-.P.+.$.g.U c.  6 k <XH.4.7 6 BXt ",
"t xXoX[ = q i.= 4X6 2 > &.F $.E.&.3.X.o o o ' C 8 m.#X'.t.fXy.^ S fXS fXPX_ w.m.) * s.-Xs.6.J.#X- 9.0.0.G.l P ..Z Y X i.zX>X% i ",
"= 9X>.s i.+X5 v.xXe I W wXw w ` }.7.w.{ 6X2.6.f L Q w.$X8X/.fX@.hX@.C./.XX}.F.[.eX' T { N.wXP.g - D ) u H f.# p | vXT.,XX i %.4.",
"%.+ H.~.> = o.7 tXq.$ E ` L #.` N.x M.tX! iXT T x.2.A 3.a hX_._./.t.M 1X7.X.&._ * ' o o |.N.M.4 H.F c V.z H.b %   c., >.LX1.J o.",
"7 B 1.= 4X[ [ 6 i &   W.n D G.l.O.I w.8XG o o 6X6X/ G.F.J.J._ , J.!.U =.x M.lXuXT VX6.V V 7.A z.O.g.+.0X+X0XE.!.d 5.c d 6 < 7 J ",
"bXo.[ Y Q.v.} p   > e E.$.+ w $.$.Q R   MXG @X2.V |.D.A.7XF.aX-.J.g X.=.#.eX' G Y.T eX! -XB -.M H u H +Xa.0X .3 ;   O   .XR.> b ",
"_.%X<.7X7 % ..N @ I.9 3 1 3 w U.3 &XUX$ !.;X2.V y * * *.Z.VX_ I.qXP.c A.s.V V 2.* o T u u w.5.0.0.JX0. .a.a. .O.N X h % & i $   ",
"q   % | &   2   kX+.$.+ S.+ + , c / h.P W.R.*.y * -XV o o * Z.Z.OX*.* V s.' y AX:X* nXx e 2 g + g.D :Xr.O ; sXe   ; R.qX2 I e ( ",
"# O e 4 2 ( <.N c.M.9 +.].g.+ w 0.3 mXI R w.J.{.G.*.o |.6XV ' lXy * 6Xy *.s.y y 6.;X=.aXq ..V.+ g.,.) ~   @ $ @ P B i p O ( y.y.",
"> d.IX& & n.7X3X  % 0 p # #X9.9.F $.3 M.8 m.x wXR.' y {.OXo 6XVXy *.sXy V U AXV !.P.X.e M.g.O.P.2 % i I .X< # W u >   P   ( y./.",
"'.K.K.z.. % ( O % W 4 $ 5 i a =Xs %.1 n n -Xa !.=XMXlX- *.o OXP.y ' U nXV N.FX3.dXm.dX% +. .z =XP @ > $ h _ J 7 < d >.q.; R .X@.",
"'.^ K.z.O 2 %   8 }.d c.Z 0   $ I b H + $.+.X 7.7.dX8 wXZX' A., nXlX$XP.J.E M.-.s XX3.mXl.E.+.& @ _ ) = o.(.o.o.j LX[ u d   ; . ",
"^ C.h @ X h.3X9XBX8X= = | 1.O =X1XB A 0Xg.1 E.sX_ Q aXg 7.pX) , m.A 8 e.dXpX7.#XL L w  .~.@ d . # >. Xj kXs 4.4.:.:.v.J vXh c.4 ",
"y.$ 2 4 I l UX] 4X(.] ] <Xo.k ,.XX# # B :.+ $.3 &X,.NXe Q -.B pXB B aX7.E qXM.zXO.U.,.O.I.# $ <.(.Q.T.6 2X%.4.DX4.zXDXb 9X, ~ O ",
"< X $ < bXo.b.;.DX-.rXrX( 9Xk 7 4Xd z.$ 2 +.+ c :XF +X0.M q.. B I.CXi :.,.L 1 z +X- - 9.) R & qX< = 4.+Xd J j 5Xk j >X>X= = %X  ",
", d X n.UXv @ mX2Xs > s i.2XW.% 4Xf.}.> > n.H A., z 3 B.H 1 rXE.+ z +.g.z ,.u V.U.0XO.! | # # 6 J d H.i ,XoX~ (.<.;.v >X:.LX>.&.",
"< P # 7 b.<XH.%.b.b.,X<X5XY ]. .BXt (.2 4 < ,.g.w H B.Z K z + 1 z z U.z g.L Z U.V.~.z =.P a 0 T.Q.>X%.KXoXR $ . q ~ = :.>X[ _ jX",
"                                                                                                                                ",
"                                                                                                                                ",
"                                                                                                                                ",
"                                                                                                                                ",
"                                                                                                                                ",
"                                                                                                                                ",
"                                                                                                                                ",
"                                                                                                                                ",
"                                                                                                                                ",
"                                                                                                                                ",
"                                                                                                                                ",
"                                                                                                                                "
};
